<?xml version="1.0" standalone="no"?>
<!DOCTYPE svg PUBLIC "-//W3C//DTD SVG 20010904//EN"
 "http://www.w3.org/TR/2001/REC-SVG-20010904/DTD/svg10.dtd">
<svg version="1.0" xmlns="http://www.w3.org/2000/svg"
 width="64.000000pt" height="64.000000pt" viewBox="0 0 64.000000 64.000000"
 preserveAspectRatio="xMidYMid meet">
<metadata>
Created by potrace 1.16, written by Peter Selinger 2001-2019
</metadata>
<g transform="translate(0.000000,64.000000) scale(0.007111,-0.007111)"
fill="#000000" stroke="none">
<path d="M908 8859 c-191 -28 -402 -170 -517 -348 -71 -111 -101 -206 -112
-355 -6 -80 -8 -1521 -7 -3671 3 -3201 5 -3545 19 -3590 92 -289 271 -471 550
-557 l74 -23 3550 -3 c2280 -2 3590 1 3661 7 323 29 577 236 676 551 l23 75 0
3645 0 3645 -23 75 c-44 139 -96 225 -202 330 -102 103 -186 155 -325 202
l-70 23 -3620 1 c-1991 1 -3645 -2 -3677 -7z m7253 -349 c134 -40 247 -144
301 -278 l23 -57 0 -3565 c0 -3396 -1 -3568 -18 -3623 -11 -37 -22 -55 -29
-51 -7 4 -8 3 -4 -4 9 -15 -28 -87 -54 -105 -11 -7 -17 -16 -15 -19 9 -9 -119
-99 -133 -93 -7 2 -10 1 -7 -5 3 -5 -25 -18 -62 -30 -51 -16 -94 -21 -173 -21
-58 1 -1642 -2 -3520 -5 -2488 -5 -3431 -3 -3475 5 -174 32 -312 156 -364 325
l-21 68 0 3542 c0 2351 4 3556 11 3585 42 186 202 327 394 349 33 4 1639 6
3570 4 3449 -3 3511 -3 3576 -22z"/>
<path d="M3179 8180 c-2128 -5 -2147 -5 -2169 -25 -12 -11 -28 -32 -36 -47
-12 -23 -14 -548 -14 -3520 0 -3447 0 -3493 20 -3525 10 -18 32 -39 47 -47 25
-12 478 -15 3523 -17 3277 -3 3497 -2 3527 14 19 10 42 35 54 59 l21 42 -4
3485 c-4 3361 -5 3487 -22 3517 -10 17 -33 40 -50 50 -30 18 -76 19 -1391 19
-748 0 -2326 -2 -3506 -5z m662 -1266 c67 -31 124 -87 156 -152 28 -56 28 -60
31 -274 l3 -218 -590 0 -591 0 0 -602 c0 -332 -2 -877 -4 -1213 -3 -335 0
-673 5 -750 17 -266 82 -428 229 -575 67 -68 103 -94 170 -128 98 -48 222 -86
347 -104 127 -19 1791 -19 1913 0 262 40 454 139 575 296 84 110 146 278 164
444 5 48 9 660 10 1360 l1 1272 -458 0 c-507 0 -523 2 -604 63 -105 81 -128
154 -128 415 l0 193 793 -3 c738 -3 795 -4 839 -21 66 -26 132 -88 165 -155
l28 -57 3 -1495 c2 -1003 -1 -1539 -8 -1628 -31 -391 -147 -661 -384 -898
-213 -213 -459 -331 -831 -401 l-140 -26 -910 -4 c-967 -5 -1037 -2 -1261 42
-637 127 -1026 510 -1137 1116 l-22 124 0 1580 c0 1530 1 1582 19 1629 34 89
119 163 213 185 21 5 332 9 698 8 651 -2 661 -2 706 -23z"/>
</g>
</svg>
